<svg xmlns="http://www.w3.org/2000/svg" width="30" height="30" viewBox="0 0 171 171" style="fill:#000"><g fill="none" stroke-miterlimit="10" font-family="none" font-weight="none" font-size="none" text-anchor="none" style="mix-blend-mode:normal"><path d="M0 171.996V0h171.996v171.996z"/><path d="M74.1 17.1c-31.413 0-57 25.587-57 57s25.587 57 57 57c13.66 0 26.205-4.85 36.037-12.903l34.033 34.033a5.7 5.7 0 1 0 8.06-8.06l-34.033-34.033C126.25 100.305 131.1 87.76 131.1 74.1c0-31.413-25.587-57-57-57zm0 11.4c25.252 0 45.6 20.348 45.6 45.6 0 25.252-20.348 45.6-45.6 45.6-25.252 0-45.6-20.348-45.6-45.6 0-25.252 20.348-45.6 45.6-45.6z" fill="#ff7a7a"/></g></svg>